<svg width="144" height="49" viewBox="0 0 144 49" fill="none" xmlns="http://www.w3.org/2000/svg">
<rect y="0.5" width="144" height="48" rx="10" fill="#2D2D2D"/>
<g clip-path="url(#clip0_0_1204)">
<path d="M32.4989 12.5C31.2194 12.5885 29.7239 13.4075 28.8525 14.474C28.0575 15.4415 27.4035 16.8785 27.6585 18.275C29.0565 18.3185 30.5009 17.48 31.3379 16.3955C32.1209 15.386 32.7134 13.958 32.4989 12.5Z" fill="white"/>
<path d="M37.5554 20.5519C36.3269 19.0114 34.6004 18.1174 32.9699 18.1174C30.8174 18.1174 29.9069 19.1479 28.4114 19.1479C26.8694 19.1479 25.698 18.1204 23.8365 18.1204C22.008 18.1204 20.061 19.2379 18.8265 21.1489C17.091 23.8399 17.388 28.8994 20.2005 33.2088C21.207 34.7508 22.551 36.4848 24.309 36.4998C25.8735 36.5148 26.3144 35.4963 28.4339 35.4858C30.5534 35.4738 30.9554 36.5133 32.5169 36.4968C34.2764 36.4833 35.6939 34.5618 36.7004 33.0198C37.4219 31.9144 37.6904 31.3579 38.2499 30.1099C34.1804 28.5604 33.5279 22.7734 37.5554 20.5519Z" fill="white"/>
</g>
<path d="M50.96 14.5H48.65V21.5H50.96C53.09 21.5 54.44 20.34 54.44 18C54.44 15.71 53.11 14.5 50.96 14.5ZM49.49 20.74V15.26H50.96C52.64 15.26 53.58 16.15 53.58 18C53.58 19.85 52.65 20.74 50.96 20.74H49.49ZM57.8759 21.66C59.2859 21.66 60.5659 20.6 60.5659 18.9C60.5659 17.24 59.2859 16.18 57.8759 16.18C56.4659 16.18 55.1859 17.24 55.1859 18.9C55.1859 20.6 56.4659 21.66 57.8759 21.66ZM57.8759 20.94C56.7759 20.94 56.0059 20.17 56.0059 18.9C56.0059 17.66 56.7759 16.9 57.8759 16.9C58.9759 16.9 59.7459 17.66 59.7459 18.9C59.7459 20.17 58.9759 20.94 57.8759 20.94ZM63.3572 21.5L64.6372 17.34H64.6772L65.9572 21.5H66.7372L68.6472 16.34H67.7972L67.1272 18.18C66.8472 18.96 66.6272 19.53 66.3272 20.44H66.2872C66.0172 19.52 65.8372 18.96 65.5972 18.17L65.0372 16.34H64.2772L63.7172 18.17C63.4772 18.96 63.2972 19.52 63.0272 20.44H62.9872C62.6872 19.53 62.4672 18.96 62.1872 18.18L61.5172 16.34H60.6672L62.5772 21.5H63.3572ZM71.9348 16.18C70.9648 16.18 70.2348 16.84 70.1048 17.84H70.0448L69.9948 16.34H69.2348V21.5H70.0448V18.84C70.0448 17.69 70.6748 16.92 71.6148 16.92C72.4448 16.92 72.9948 17.48 72.9948 18.33V21.5H73.7948V18.07C73.7948 16.94 73.0548 16.18 71.9348 16.18ZM74.9765 21.5H75.7765V14.5H74.9765V21.5ZM79.3994 21.66C80.8094 21.66 82.0894 20.6 82.0894 18.9C82.0894 17.24 80.8094 16.18 79.3994 16.18C77.9894 16.18 76.7094 17.24 76.7094 18.9C76.7094 20.6 77.9894 21.66 79.3994 21.66ZM79.3994 20.94C78.2994 20.94 77.5294 20.17 77.5294 18.9C77.5294 17.66 78.2994 16.9 79.3994 16.9C80.4994 16.9 81.2694 17.66 81.2694 18.9C81.2694 20.17 80.4994 20.94 79.3994 20.94ZM82.6457 20.23C82.6457 21.16 83.3657 21.66 84.4057 21.66C85.3657 21.66 86.3957 21.17 86.5457 19.78H86.5857L86.6257 21.5H87.3857V18.16C87.3857 17.09 86.8057 16.18 85.1157 16.18C83.5757 16.18 82.6557 17.17 82.6557 18.31H83.4557C83.5357 17.6 83.9957 16.88 85.0857 16.88C86.2357 16.88 86.5857 17.49 86.5857 17.94C86.5857 18.73 85.9057 18.76 84.6857 18.74C83.3357 18.72 82.6457 19.29 82.6457 20.23ZM83.4957 20.12C83.4957 19.62 83.8857 19.3 84.4957 19.28C86.0757 19.23 86.4457 19 86.5457 18.43H86.5857V19.21C86.5857 20.04 85.8257 20.98 84.6057 20.98C83.8257 20.98 83.4957 20.65 83.4957 20.12ZM92.5614 17.84H92.5214C92.3114 16.84 91.5514 16.18 90.6214 16.18C89.2214 16.18 88.2914 17.28 88.2914 18.93C88.2914 20.58 89.2214 21.68 90.6214 21.68C91.5514 21.68 92.3114 21.02 92.5214 20.02H92.5614L92.6014 21.5H93.3614V14.5H92.5614V17.84ZM90.8314 20.96C89.7914 20.96 89.1014 20.15 89.1014 18.93C89.1014 17.71 89.7914 16.9 90.8314 16.9C91.8714 16.9 92.5614 17.71 92.5614 18.67V19.19C92.5614 20.15 91.8714 20.96 90.8314 20.96ZM98.999 21.66C100.409 21.66 101.689 20.6 101.689 18.9C101.689 17.24 100.409 16.18 98.999 16.18C97.589 16.18 96.309 17.24 96.309 18.9C96.309 20.6 97.589 21.66 98.999 21.66ZM98.999 20.94C97.899 20.94 97.129 20.17 97.129 18.9C97.129 17.66 97.899 16.9 98.999 16.9C100.099 16.9 100.869 17.66 100.869 18.9C100.869 20.17 100.099 20.94 98.999 20.94ZM105.343 16.18C104.373 16.18 103.643 16.84 103.513 17.84H103.453L103.403 16.34H102.643V21.5H103.453V18.84C103.453 17.69 104.083 16.92 105.023 16.92C105.853 16.92 106.403 17.48 106.403 18.33V21.5H107.203V18.07C107.203 16.94 106.463 16.18 105.343 16.18ZM113.097 16.34H111.677L111.647 14.99H110.877V16.34H109.957V16.94H110.877V20.22C110.877 21.31 111.257 21.55 112.357 21.55C112.577 21.55 112.817 21.54 113.097 21.52V20.81C112.837 20.83 112.617 20.84 112.437 20.84C111.917 20.84 111.677 20.74 111.677 20.17V16.94H113.097V16.34ZM116.642 16.18C115.672 16.18 114.942 16.84 114.812 17.84H114.752V14.5H113.942V21.5H114.752V18.84C114.752 17.69 115.382 16.92 116.322 16.92C117.152 16.92 117.702 17.48 117.702 18.33V21.5H118.502V18.07C118.502 16.94 117.762 16.18 116.642 16.18ZM124.434 18.67C124.434 17.27 123.454 16.18 121.994 16.18C120.494 16.18 119.454 17.17 119.454 18.9C119.454 20.76 120.524 21.66 122.014 21.66C123.294 21.66 124.244 20.87 124.394 19.69H123.574C123.424 20.4 122.874 20.96 122.014 20.96C121.014 20.96 120.274 20.3 120.254 19.05H124.434V18.67ZM121.964 16.88C122.954 16.88 123.554 17.52 123.614 18.49H120.254C120.324 17.43 121.034 16.88 121.964 16.88ZM57.295 37.5L53.681 28.4H51.614L48.091 37.5H49.833L50.691 35.186H54.643L55.514 37.5H57.295ZM51.822 32.105C52.082 31.403 52.342 30.701 52.602 29.843H52.693C52.953 30.701 53.213 31.403 53.486 32.118L54.136 33.847H51.185L51.822 32.105ZM62.1027 30.584C60.9717 30.584 59.9837 31.312 59.6197 32.69H59.5677L59.5027 30.792H57.9817V39.892H59.5677V35.615H59.6197C59.9837 36.993 60.9717 37.708 62.1027 37.708C63.8057 37.708 65.0147 36.33 65.0147 34.159C65.0147 31.975 63.8057 30.584 62.1027 30.584ZM61.4787 36.538C60.3217 36.538 59.5677 35.667 59.5677 34.536V33.769C59.5677 32.638 60.3217 31.754 61.4787 31.754C62.6487 31.754 63.4157 32.664 63.4157 34.159C63.4157 35.641 62.6487 36.538 61.4787 36.538ZM70.1896 30.584C69.0586 30.584 68.0706 31.312 67.7066 32.69H67.6546L67.5896 30.792H66.0686V39.892H67.6546V35.615H67.7066C68.0706 36.993 69.0586 37.708 70.1896 37.708C71.8926 37.708 73.1016 36.33 73.1016 34.159C73.1016 31.975 71.8926 30.584 70.1896 30.584ZM69.5656 36.538C68.4086 36.538 67.6546 35.667 67.6546 34.536V33.769C67.6546 32.638 68.4086 31.754 69.5656 31.754C70.7356 31.754 71.5026 32.664 71.5026 34.159C71.5026 35.641 70.7356 36.538 69.5656 36.538ZM80.5513 37.708C82.9693 37.708 84.4513 36.655 84.4513 34.991C84.4513 33.535 83.5023 32.872 82.2803 32.586L79.8623 32.027C78.9393 31.806 78.4713 31.39 78.4713 30.831C78.4713 30.077 79.2383 29.609 80.4993 29.609C81.8643 29.609 82.6833 30.272 82.7093 31.364H84.3733C84.3473 29.375 82.9043 28.192 80.4993 28.205C78.1593 28.218 76.7553 29.206 76.7553 30.805C76.7553 32.118 77.6263 33.002 79.3033 33.366L81.6043 33.886C82.3323 34.055 82.7223 34.419 82.7223 34.965C82.7223 35.797 81.9033 36.304 80.5513 36.291C79.1343 36.291 78.2373 35.654 78.1853 34.575L76.5083 34.562C76.4823 36.512 78.0163 37.708 80.5513 37.708ZM89.4465 30.792H87.5485L87.4965 29.037H85.9885V30.792H84.8965V31.806H85.9885V35.706C85.9885 37.188 86.6645 37.565 88.1855 37.578C88.5625 37.578 88.9785 37.552 89.4465 37.513V36.265C89.1085 36.291 88.8355 36.304 88.5495 36.304C87.8085 36.304 87.5745 36.148 87.5745 35.472V31.806H89.4465V30.792ZM93.5932 37.708C95.5562 37.708 97.2072 36.33 97.2072 34.12C97.2072 31.962 95.5562 30.584 93.5932 30.584C91.6302 30.584 89.9922 31.962 89.9922 34.12C89.9922 36.33 91.6302 37.708 93.5932 37.708ZM93.5932 36.46C92.3842 36.46 91.5912 35.628 91.5912 34.12C91.5912 32.651 92.3842 31.832 93.5932 31.832C94.8152 31.832 95.6082 32.651 95.6082 34.12C95.6082 35.628 94.8152 36.46 93.5932 36.46ZM99.8499 33.353L99.7979 30.792H98.2639V37.5H99.8499V34.861C99.8889 32.82 100.669 32.157 102.762 32.027V30.688C100.89 30.688 100.201 31.403 99.9019 33.353H99.8499ZM109.688 33.925C109.688 32.079 108.427 30.584 106.373 30.584C104.306 30.584 102.941 31.936 102.941 34.12C102.941 36.486 104.332 37.708 106.451 37.708C107.946 37.708 109.428 36.811 109.636 35.16H108.193C108.024 35.914 107.387 36.473 106.451 36.473C105.307 36.473 104.501 35.745 104.462 34.445H109.688V33.925ZM106.308 31.819C107.361 31.819 108.05 32.469 108.128 33.548H104.462C104.54 32.404 105.32 31.819 106.308 31.819Z" fill="white"/>
<defs>
<clipPath id="clip0_0_1204">
<rect width="24" height="24" fill="white" transform="translate(16 12.5)"/>
</clipPath>
</defs>
</svg>
