<svg width="10" height="10" viewBox="0 0 10 10" fill="none" xmlns="http://www.w3.org/2000/svg">
<path d="M1.07108 8.92892C1.26624 9.12408 1.58303 9.12408 1.77819 8.92892L8.8314 1.8757L8.70306 7.14895C8.69634 7.42472 8.91413 7.65418 9.19079 7.66107C9.46691 7.66779 9.69602 7.44965 9.70273 7.17352L9.84928 1.15092C9.84928 0.883631 9.74534 0.632608 9.55636 0.443634C9.36757 0.254837 9.11637 0.150715 8.83706 0.151069L2.82665 0.297439C2.55053 0.304156 2.33256 0.533437 2.3391 0.809385C2.34546 1.08551 2.57492 1.30365 2.85105 1.29694L8.13561 1.15728L1.07108 8.22181C0.87592 8.41697 0.87592 8.73375 1.07108 8.92892Z" fill="#2D2D2D"/>
</svg>
