<svg width="144" height="49" viewBox="0 0 144 49" fill="none" xmlns="http://www.w3.org/2000/svg">
<rect y="0.5" width="144" height="48" rx="10" fill="#2D2D2D"/>
<g clip-path="url(#clip0_0_1213)">
<path d="M20.6697 12.8777C20.1229 12.5244 19.4662 12.4176 18.8502 12.563L29.6752 23.388L33.1836 19.8796L20.6697 12.8777Z" fill="white"/>
<path d="M17.5066 13.4429C17.2047 13.8443 17.0309 14.3371 17.0309 14.8584V34.1409C17.0309 34.6622 17.2048 35.155 17.5066 35.5564L28.5634 24.4997L17.5066 13.4429Z" fill="white"/>
<path d="M37.7622 22.4415L34.6091 20.6772L30.7867 24.4996L34.6093 28.3222L37.7627 26.5578C38.5182 26.1345 38.9692 25.3652 38.9692 24.4996C38.9692 23.634 38.5182 22.8648 37.7622 22.4415Z" fill="white"/>
<path d="M29.6751 25.6116L18.8508 36.4359C19.0282 36.4776 19.2088 36.5001 19.3895 36.5001C19.8358 36.5001 20.2806 36.3732 20.6696 36.1218L33.1836 29.12L29.6751 25.6116Z" fill="white"/>
</g>
<path d="M50.96 14.5H48.65V21.5H50.96C53.09 21.5 54.44 20.34 54.44 18C54.44 15.71 53.11 14.5 50.96 14.5ZM49.49 20.74V15.26H50.96C52.64 15.26 53.58 16.15 53.58 18C53.58 19.85 52.65 20.74 50.96 20.74H49.49ZM57.8759 21.66C59.2859 21.66 60.5659 20.6 60.5659 18.9C60.5659 17.24 59.2859 16.18 57.8759 16.18C56.4659 16.18 55.1859 17.24 55.1859 18.9C55.1859 20.6 56.4659 21.66 57.8759 21.66ZM57.8759 20.94C56.7759 20.94 56.0059 20.17 56.0059 18.9C56.0059 17.66 56.7759 16.9 57.8759 16.9C58.9759 16.9 59.7459 17.66 59.7459 18.9C59.7459 20.17 58.9759 20.94 57.8759 20.94ZM63.3572 21.5L64.6372 17.34H64.6772L65.9572 21.5H66.7372L68.6472 16.34H67.7972L67.1272 18.18C66.8472 18.96 66.6272 19.53 66.3272 20.44H66.2872C66.0172 19.52 65.8372 18.96 65.5972 18.17L65.0372 16.34H64.2772L63.7172 18.17C63.4772 18.96 63.2972 19.52 63.0272 20.44H62.9872C62.6872 19.53 62.4672 18.96 62.1872 18.18L61.5172 16.34H60.6672L62.5772 21.5H63.3572ZM71.9348 16.18C70.9648 16.18 70.2348 16.84 70.1048 17.84H70.0448L69.9948 16.34H69.2348V21.5H70.0448V18.84C70.0448 17.69 70.6748 16.92 71.6148 16.92C72.4448 16.92 72.9948 17.48 72.9948 18.33V21.5H73.7948V18.07C73.7948 16.94 73.0548 16.18 71.9348 16.18ZM74.9765 21.5H75.7765V14.5H74.9765V21.5ZM79.3994 21.66C80.8094 21.66 82.0894 20.6 82.0894 18.9C82.0894 17.24 80.8094 16.18 79.3994 16.18C77.9894 16.18 76.7094 17.24 76.7094 18.9C76.7094 20.6 77.9894 21.66 79.3994 21.66ZM79.3994 20.94C78.2994 20.94 77.5294 20.17 77.5294 18.9C77.5294 17.66 78.2994 16.9 79.3994 16.9C80.4994 16.9 81.2694 17.66 81.2694 18.9C81.2694 20.17 80.4994 20.94 79.3994 20.94ZM82.6457 20.23C82.6457 21.16 83.3657 21.66 84.4057 21.66C85.3657 21.66 86.3957 21.17 86.5457 19.78H86.5857L86.6257 21.5H87.3857V18.16C87.3857 17.09 86.8057 16.18 85.1157 16.18C83.5757 16.18 82.6557 17.17 82.6557 18.31H83.4557C83.5357 17.6 83.9957 16.88 85.0857 16.88C86.2357 16.88 86.5857 17.49 86.5857 17.94C86.5857 18.73 85.9057 18.76 84.6857 18.74C83.3357 18.72 82.6457 19.29 82.6457 20.23ZM83.4957 20.12C83.4957 19.62 83.8857 19.3 84.4957 19.28C86.0757 19.23 86.4457 19 86.5457 18.43H86.5857V19.21C86.5857 20.04 85.8257 20.98 84.6057 20.98C83.8257 20.98 83.4957 20.65 83.4957 20.12ZM92.5614 17.84H92.5214C92.3114 16.84 91.5514 16.18 90.6214 16.18C89.2214 16.18 88.2914 17.28 88.2914 18.93C88.2914 20.58 89.2214 21.68 90.6214 21.68C91.5514 21.68 92.3114 21.02 92.5214 20.02H92.5614L92.6014 21.5H93.3614V14.5H92.5614V17.84ZM90.8314 20.96C89.7914 20.96 89.1014 20.15 89.1014 18.93C89.1014 17.71 89.7914 16.9 90.8314 16.9C91.8714 16.9 92.5614 17.71 92.5614 18.67V19.19C92.5614 20.15 91.8714 20.96 90.8314 20.96ZM98.999 21.66C100.409 21.66 101.689 20.6 101.689 18.9C101.689 17.24 100.409 16.18 98.999 16.18C97.589 16.18 96.309 17.24 96.309 18.9C96.309 20.6 97.589 21.66 98.999 21.66ZM98.999 20.94C97.899 20.94 97.129 20.17 97.129 18.9C97.129 17.66 97.899 16.9 98.999 16.9C100.099 16.9 100.869 17.66 100.869 18.9C100.869 20.17 100.099 20.94 98.999 20.94ZM105.343 16.18C104.373 16.18 103.643 16.84 103.513 17.84H103.453L103.403 16.34H102.643V21.5H103.453V18.84C103.453 17.69 104.083 16.92 105.023 16.92C105.853 16.92 106.403 17.48 106.403 18.33V21.5H107.203V18.07C107.203 16.94 106.463 16.18 105.343 16.18ZM113.097 16.34H111.677L111.647 14.99H110.877V16.34H109.957V16.94H110.877V20.22C110.877 21.31 111.257 21.55 112.357 21.55C112.577 21.55 112.817 21.54 113.097 21.52V20.81C112.837 20.83 112.617 20.84 112.437 20.84C111.917 20.84 111.677 20.74 111.677 20.17V16.94H113.097V16.34ZM116.642 16.18C115.672 16.18 114.942 16.84 114.812 17.84H114.752V14.5H113.942V21.5H114.752V18.84C114.752 17.69 115.382 16.92 116.322 16.92C117.152 16.92 117.702 17.48 117.702 18.33V21.5H118.502V18.07C118.502 16.94 117.762 16.18 116.642 16.18ZM124.434 18.67C124.434 17.27 123.454 16.18 121.994 16.18C120.494 16.18 119.454 17.17 119.454 18.9C119.454 20.76 120.524 21.66 122.014 21.66C123.294 21.66 124.244 20.87 124.394 19.69H123.574C123.424 20.4 122.874 20.96 122.014 20.96C121.014 20.96 120.274 20.3 120.254 19.05H124.434V18.67ZM121.964 16.88C122.954 16.88 123.554 17.52 123.614 18.49H120.254C120.324 17.43 121.034 16.88 121.964 16.88ZM55.813 35.433L55.917 37.5H57.386V32.716H52.524V33.99H55.787L55.774 34.146C55.722 35.277 54.682 36.317 53.135 36.317C51.029 36.317 50.119 34.913 50.119 32.95C50.119 31.039 50.99 29.583 52.979 29.583C54.396 29.57 55.254 30.441 55.462 31.598H57.217C56.97 29.7 55.514 28.192 52.979 28.192C49.95 28.192 48.377 30.22 48.377 32.95C48.377 35.797 50.015 37.708 52.537 37.708C54.396 37.708 55.345 36.694 55.722 35.433H55.813ZM62.0327 37.708C63.9957 37.708 65.6467 36.33 65.6467 34.12C65.6467 31.962 63.9957 30.584 62.0327 30.584C60.0697 30.584 58.4317 31.962 58.4317 34.12C58.4317 36.33 60.0697 37.708 62.0327 37.708ZM62.0327 36.46C60.8237 36.46 60.0307 35.628 60.0307 34.12C60.0307 32.651 60.8237 31.832 62.0327 31.832C63.2547 31.832 64.0477 32.651 64.0477 34.12C64.0477 35.628 63.2547 36.46 62.0327 36.46ZM70.0053 37.708C71.9683 37.708 73.6193 36.33 73.6193 34.12C73.6193 31.962 71.9683 30.584 70.0053 30.584C68.0423 30.584 66.4043 31.962 66.4043 34.12C66.4043 36.33 68.0423 37.708 70.0053 37.708ZM70.0053 36.46C68.7963 36.46 68.0033 35.628 68.0033 34.12C68.0033 32.651 68.7963 31.832 70.0053 31.832C71.2273 31.832 72.0203 32.651 72.0203 34.12C72.0203 35.628 71.2273 36.46 70.0053 36.46ZM81.1784 29.778C79.8004 30.064 78.5524 30.311 77.4084 30.506C75.3804 30.831 74.7174 31.637 74.7174 32.781C74.7174 33.743 75.2504 34.471 76.1994 34.809V34.861C75.2764 34.887 74.5614 35.238 74.5614 36.083C74.5614 36.707 75.0554 37.253 76.0694 37.344V37.409C75.0554 37.487 74.3144 37.838 74.3144 38.67C74.3144 39.658 75.2114 40.269 77.6814 40.269C79.9304 40.269 81.1264 39.554 81.1264 38.137C81.1264 36.642 80.1384 36.148 78.6044 36.135L76.7844 36.122C76.2514 36.122 75.9004 35.888 75.9004 35.524C75.9004 35.212 76.0824 35.017 76.4984 34.9C76.8234 34.991 77.2004 35.03 77.6034 35.03C79.4104 35.03 80.4894 34.146 80.4894 32.781C80.4894 31.754 79.8134 31 78.7864 30.727L78.8124 30.649L81.1784 31.026V29.778ZM78.9814 32.781C78.9814 33.405 78.5004 33.873 77.6034 33.873C76.7064 33.873 76.2124 33.405 76.2124 32.781C76.2124 32.196 76.7064 31.741 77.6034 31.741C78.5004 31.741 78.9814 32.196 78.9814 32.781ZM78.5394 37.357C79.3194 37.357 79.6574 37.617 79.6574 38.176C79.6574 38.761 79.1634 39.086 77.6944 39.086C76.2384 39.086 75.6924 38.748 75.6924 38.202C75.6924 37.76 76.0304 37.487 76.5374 37.357H78.5394ZM82.1025 37.5H83.6885V28.4H82.1025V37.5ZM91.4834 33.925C91.4834 32.079 90.2224 30.584 88.1684 30.584C86.1014 30.584 84.7364 31.936 84.7364 34.12C84.7364 36.486 86.1274 37.708 88.2464 37.708C89.7414 37.708 91.2234 36.811 91.4314 35.16H89.9884C89.8194 35.914 89.1824 36.473 88.2464 36.473C87.1024 36.473 86.2964 35.745 86.2574 34.445H91.4834V33.925ZM88.1034 31.819C89.1564 31.819 89.8454 32.469 89.9234 33.548H86.2574C86.3354 32.404 87.1154 31.819 88.1034 31.819ZM99.2845 28.4H95.3715V37.5H97.0615V34.237H99.2325C101.143 34.237 102.586 33.197 102.586 31.312C102.586 29.284 101.169 28.4 99.2845 28.4ZM97.0615 32.963V29.778H98.9335C100.038 29.778 100.883 30.194 100.883 31.364C100.883 32.508 100.038 32.963 98.9335 32.963H97.0615ZM103.494 37.5H105.08V28.4H103.494V37.5ZM106.063 35.849C106.063 37.097 107.038 37.708 108.338 37.708C109.69 37.708 110.834 36.967 111.003 35.368H111.068L111.133 37.5H112.628V33.197C112.628 31.78 111.757 30.584 109.482 30.584C107.285 30.584 106.167 31.91 106.115 33.418H107.688C107.766 32.534 108.325 31.819 109.482 31.819C110.678 31.819 111.068 32.443 111.068 32.95C111.068 33.717 110.444 33.938 108.767 33.912C106.921 33.886 106.063 34.679 106.063 35.849ZM107.688 35.706C107.688 35.16 108.078 34.835 108.702 34.809C110.444 34.718 110.873 34.367 111.003 33.574H111.068V34.601C111.068 35.602 110.145 36.603 108.884 36.616C108.078 36.616 107.688 36.278 107.688 35.706ZM116.407 36.018C115.991 34.575 115.549 33.262 115.224 32.287L114.73 30.792H113.014L115.497 37.474L115.38 37.721C114.964 38.644 114.613 38.774 113.3 38.696V39.97C115.484 40.1 116.472 39.71 117.265 37.643L119.904 30.792H118.227L117.733 32.248C117.395 33.262 116.927 34.562 116.472 36.018H116.407Z" fill="white"/>
<defs>
<clipPath id="clip0_0_1213">
<rect width="24" height="24" fill="white" transform="translate(16 12.5)"/>
</clipPath>
</defs>
</svg>
