<svg width="480" height="461" viewBox="0 0 480 461" fill="none" xmlns="http://www.w3.org/2000/svg">
<g clip-path="url(#clip0_0_1430)">
<rect width="480" height="460" transform="translate(0 0.5)" fill="white"/>
<path d="M192.452 118.168C188.788 114.465 185.123 110.762 181.482 107.036C180.667 106.208 179.401 107.496 180.215 108.324C183.879 112.027 187.544 115.73 191.186 119.456C192 120.284 193.267 118.996 192.452 118.168Z" fill="#F674B4"/>
<path d="M265.335 97.744C263.186 100.274 261.037 102.781 258.888 105.311C258.119 106.208 259.431 107.496 260.177 106.599C262.326 104.069 264.475 101.562 266.624 99.032C267.393 98.158 266.081 96.847 265.335 97.744Z" fill="#7BAEED"/>
<path d="M284.878 111.245C279.54 113.706 274.224 116.19 268.886 118.651C267.823 119.157 268.75 120.721 269.813 120.238C275.152 117.777 280.468 115.293 285.806 112.832C286.892 112.326 285.964 110.762 284.878 111.245Z" fill="#F674B4"/>
<path d="M272.347 250.717C257.304 252.856 258.503 275.695 275.129 275.58C293.994 275.442 290.941 248.049 272.347 250.717Z" fill="#FFCB56"/>
<path d="M183.336 264.356L185.983 272.383L193.561 266.242L183.336 264.356Z" fill="#F674B4"/>
<path d="M64.2639 178.727L72.0679 198.484L84.803 182.292L64.2639 178.727Z" fill="#7BAEED"/>
<path d="M377.372 138.753L359.842 161.178L381.534 180.889L403.024 161.178L377.372 138.753Z" fill="#F674B4"/>
<path d="M366.899 155.566H355.702L353.915 168.952L364.434 172.494L366.899 155.566Z" fill="#FFCB56"/>
<path d="M87.2008 147.171C86.7031 150.713 86.2055 154.232 85.7079 157.774C85.5495 158.924 87.2687 159.43 87.4496 158.257C87.9473 154.715 88.4449 151.196 88.9425 147.654C89.1009 146.504 87.3591 145.998 87.2008 147.171Z" fill="#FFCB56"/>
<path d="M371.061 128.794C370.88 127.644 369.139 128.127 369.32 129.277C369.568 130.795 369.817 132.313 370.066 133.831C370.247 134.981 371.989 134.498 371.808 133.348C371.559 131.83 371.31 130.312 371.061 128.794Z" fill="#7BAEED"/>
<path d="M408.204 173.575C405.467 173.828 402.73 174.081 400.015 174.334C398.861 174.449 398.861 176.266 400.015 176.151C402.752 175.898 405.489 175.645 408.204 175.392C409.335 175.3 409.357 173.483 408.204 173.575Z" fill="#7BAEED"/>
<path d="M75.2573 163.041C73.7644 162.029 72.2714 161.017 70.7785 160.028C69.8058 159.384 68.901 160.948 69.8737 161.615C71.3666 162.627 72.8596 163.639 74.3525 164.628C75.3252 165.272 76.23 163.685 75.2573 163.041Z" fill="#FFCB56"/>
<path d="M165.15 122.032C140.268 128.886 117.534 142.019 98.9859 160.235C98.1489 161.063 99.4157 162.351 100.253 161.523C118.598 143.537 141.037 130.588 165.625 123.803C166.733 123.481 166.258 121.733 165.15 122.032Z" fill="#7BAEED"/>
<path d="M343.352 130.45C333.761 122.193 322.631 116.42 310.394 113.43C309.263 113.154 308.788 114.925 309.919 115.201C321.84 118.122 332.72 123.688 342.062 131.738C342.944 132.497 344.234 131.209 343.352 130.45Z" fill="#7BAEED"/>
<path d="M305.757 357.299C305.282 357.299 304.875 356.908 304.852 356.402L301.572 239.424C301.55 238.918 301.957 238.504 302.454 238.481C302.929 238.481 303.359 238.872 303.382 239.378L306.662 356.356C306.684 356.862 306.277 357.276 305.78 357.299C305.757 357.299 305.757 357.299 305.757 357.299Z" fill="#000200"/>
<path d="M160.943 361.692C160.445 361.692 160.038 361.278 160.038 360.772V343.131C160.038 342.625 160.445 342.211 160.943 342.211C161.44 342.211 161.847 342.625 161.847 343.131V360.772C161.847 361.301 161.44 361.692 160.943 361.692Z" fill="#000200"/>
<path d="M215.819 293.819C215.796 293.819 215.774 293.819 215.751 293.819L190.213 291.657C189.964 291.634 189.738 291.519 189.602 291.335C189.444 291.151 189.376 290.898 189.399 290.645L191.005 275.856C191.05 275.396 191.435 275.051 191.887 275.051H215.819C216.317 275.051 216.724 275.465 216.724 275.971V292.922C216.724 293.175 216.611 293.428 216.43 293.589C216.249 293.727 216.023 293.819 215.819 293.819ZM191.254 289.909L214.914 291.91V276.868H192.679L191.254 289.909Z" fill="#000200"/>
<path d="M280.128 269.278C271.103 269.278 266.511 262.769 266.081 256.697C265.651 250.74 268.999 243.794 277.346 242.598C283.182 241.747 288.271 243.771 291.303 248.095C294.243 252.281 294.718 258.031 292.501 262.447C290.307 266.817 285.942 269.255 280.241 269.301C280.219 269.278 280.173 269.278 280.128 269.278ZM277.595 244.415C270.379 245.45 267.506 251.43 267.868 256.582C268.253 262.01 272.211 267.461 280.128 267.461C280.173 267.461 280.219 267.461 280.264 267.461C285.263 267.415 289.063 265.345 290.941 261.619C292.863 257.824 292.434 252.81 289.877 249.176C288.317 246.945 284.652 243.403 277.595 244.415Z" fill="#000200"/>
<path d="M157.188 266.794C156.554 262.194 154.451 255.639 157.007 250.487C160.648 243.173 166.846 235.1 169.176 237.906C172.999 242.483 183.54 309.068 181.595 327.951C179.649 346.834 161.621 356.402 161.621 356.402L160.965 343.154C160.965 343.154 169.719 334.828 170.194 318.613C170.669 302.398 160.875 256.766 160.875 256.766L157.188 266.794Z" fill="#000200"/>
<path d="M312.701 326.502C311.367 332.988 308.539 338.278 305.327 342.487C305.214 340.67 305.101 338.83 304.988 337.013C304.377 327.606 301.64 243.311 302.771 240.505C301.074 231.696 306.888 242.069 309.828 248.762C312.317 254.42 315.303 261.78 314.873 269.025C315.348 291.358 314.873 315.968 312.701 326.502Z" fill="#000200"/>
<path d="M145.357 297.775C144.86 297.775 144.452 297.361 144.452 296.855L144.407 227.326C144.407 222.059 148.456 217.827 153.614 217.689C175.759 217.114 175.849 217.229 176.234 217.712C176.415 217.942 176.483 218.241 176.415 218.517C176.302 219 175.804 219.322 175.329 219.184C175.306 219.184 175.284 219.161 175.261 219.161C174.65 219.115 171.212 219.046 153.659 219.529C149.474 219.644 146.194 223.071 146.194 227.326L146.239 296.855C146.262 297.361 145.855 297.775 145.357 297.775Z" fill="#000200"/>
<path d="M308.765 259.572C308.268 259.572 307.861 259.158 307.861 258.652V225.624C307.861 221.323 304.422 217.827 300.192 217.827C299.695 217.827 299.287 217.413 299.287 216.907C299.287 216.401 299.695 215.987 300.192 215.987C305.418 215.987 309.648 220.311 309.648 225.601V258.629C309.648 259.158 309.263 259.572 308.765 259.572Z" fill="#000200"/>
<path d="M149.293 361.692C148.795 361.692 148.388 361.278 148.388 360.772V353.573C148.388 353.067 148.795 352.653 149.293 352.653C149.791 352.653 150.198 353.067 150.198 353.573V360.772C150.198 361.301 149.791 361.692 149.293 361.692Z" fill="#000200"/>
<path d="M286.032 216.93C285.172 203.107 274.36 204.832 274.36 204.832C271.351 196.575 263.57 195.54 263.57 195.54C262.914 185.443 257.96 175.001 236.426 176.128C214.892 177.255 205.549 186.616 206.296 201.221C197.316 201.336 194.104 206.856 194.149 210.49C192.407 206.442 191.932 201.612 191.887 196.046C191.615 171.367 203.333 163.271 247.827 162.834C284.924 162.466 288.565 170.562 289.629 189.1C290.33 201.796 290.42 210.881 286.032 216.93Z" fill="#000200"/>
<path d="M249.93 227.579C199.465 227.579 191.208 218.287 190.982 196.069C190.869 185.397 192.973 178.382 197.836 173.345C205.391 165.502 219.868 162.19 247.804 161.937V162.857V161.937C285.037 161.592 289.402 169.918 290.511 189.054C291.28 202.624 291.37 212.721 285.489 219.069C279.947 225.026 269.316 227.579 249.93 227.579ZM247.827 163.754C220.411 164.007 206.319 167.158 199.125 174.61C194.624 179.279 192.656 185.88 192.769 196.046C192.995 216.24 198.696 225.739 249.93 225.739C268.773 225.739 279.02 223.37 284.177 217.804C289.583 211.985 289.47 202.256 288.724 189.146C287.751 172.218 285.467 163.409 247.827 163.754Z" fill="#000200"/>
<path d="M215.796 213.526C215.683 213.526 215.548 213.503 215.434 213.457C214.982 213.25 214.779 212.721 214.982 212.261C218.172 204.832 226.156 186.593 226.156 186.593C226.36 186.133 226.88 185.926 227.31 186.11C227.559 186.202 251.83 196.23 263.412 194.413C263.909 194.344 264.362 194.689 264.43 195.172C264.498 195.678 264.181 196.138 263.683 196.207C252.712 197.932 231.879 189.905 227.446 188.134C225.862 191.745 219.416 206.488 216.611 212.997C216.475 213.319 216.158 213.526 215.796 213.526Z" fill="#000200"/>
<path d="M205.527 220.633C205.097 220.633 204.713 220.311 204.645 219.874C204.351 217.965 204.78 216.24 205.889 214.883C207.653 212.767 211.001 211.709 215.796 211.709C216.294 211.709 216.701 212.123 216.701 212.629C216.701 213.135 216.294 213.549 215.796 213.549C211.589 213.549 208.648 214.423 207.246 216.079C206.454 217.022 206.183 218.195 206.409 219.598C206.477 220.104 206.16 220.564 205.663 220.656C205.617 220.633 205.572 220.633 205.527 220.633Z" fill="#000200"/>
<path d="M244.207 223.393C243.71 223.393 243.303 222.979 243.303 222.473C243.303 221.967 243.71 221.553 244.207 221.553C245.881 221.553 247.261 221.093 247.917 220.334C248.279 219.897 248.392 219.368 248.302 218.724C248.053 217.275 244.909 216.47 243.416 216.309C242.963 216.263 242.624 215.872 242.624 215.412V207.04C242.624 206.534 243.031 206.12 243.529 206.12C244.026 206.12 244.434 206.534 244.434 207.04V214.607C246.107 214.906 249.681 215.849 250.089 218.425C250.292 219.598 250.021 220.679 249.319 221.507C248.279 222.726 246.469 223.393 244.207 223.393Z" fill="#000200"/>
<path d="M231.631 202.417C230.16 202.578 228.735 202.831 227.31 203.268C226.202 203.613 226.948 205.269 228.057 204.924C229.301 204.533 230.613 204.349 231.925 204.211C233.078 204.073 232.784 202.279 231.631 202.417Z" fill="#000200"/>
<path d="M257.598 203.107C256.671 202.486 255.653 202.049 254.771 201.359C253.866 200.646 252.599 201.957 253.527 202.67C254.522 203.452 255.676 203.981 256.716 204.694C257.689 205.338 258.548 203.728 257.598 203.107Z" fill="#000200"/>
<path d="M264.792 226.429C264.294 226.429 263.887 226.015 263.887 225.532C263.819 216.93 263.593 209.616 262.665 195.609C261.783 182.246 253.21 176.174 236.471 177.048C224.89 177.646 216.611 180.659 211.86 186.018C208.445 189.882 206.861 194.965 207.178 201.175C207.201 201.681 206.816 202.118 206.319 202.141C205.776 202.141 205.391 201.773 205.368 201.267C205.029 194.574 206.748 189.031 210.503 184.799C215.593 179.072 224.279 175.852 236.358 175.231C254.047 174.311 263.502 181.119 264.43 195.494C265.357 209.501 265.583 217.114 265.651 225.532C265.696 226.015 265.312 226.429 264.792 226.429C264.792 226.429 264.814 226.429 264.792 226.429Z" fill="#000200"/>
<path d="M163.793 250.763C163.657 250.763 163.521 250.74 163.408 250.671C162.956 250.464 162.775 249.912 162.978 249.452L163.544 248.256C167.005 240.988 177.523 218.908 176.867 198.622C176.234 179.486 176.415 166.33 184.038 158.188C192.226 149.448 208.196 146.297 247.352 145.676C279.902 145.055 298.405 147.401 300.622 203.084C300.758 206.649 300.871 209.961 300.961 213.043C301.323 224.842 301.572 233.375 303.63 240.229C303.766 240.712 303.517 241.218 303.042 241.379C302.567 241.517 302.07 241.264 301.911 240.781C299.785 233.697 299.536 225.072 299.174 213.112C299.084 210.03 298.971 206.718 298.835 203.153C296.573 146.527 277.007 146.918 247.397 147.493C208.807 148.091 193.154 151.104 185.35 159.43C178.202 167.043 178.066 179.877 178.677 198.553C179.355 219.276 168.679 241.678 165.172 249.038L164.607 250.234C164.449 250.579 164.132 250.763 163.793 250.763Z" fill="#000200"/>
<path d="M194.149 210.513L193.244 210.49C193.221 208.282 194.171 205.982 195.913 204.165C197.565 202.44 200.709 200.37 206.296 200.301C206.748 200.301 207.201 200.692 207.201 201.198C207.201 201.704 206.816 202.118 206.319 202.118C201.342 202.187 198.628 203.958 197.203 205.43C195.823 206.856 195.031 208.742 195.054 210.467L194.149 210.513Z" fill="#000200"/>
<path d="M285.195 218.333C285.195 218.402 285.195 218.448 285.218 218.517C285.761 217.988 286.349 217.482 286.959 217.022C286.959 216.976 286.959 216.93 286.959 216.884C286.665 212.008 285.127 208.42 282.413 206.212C279.63 203.935 276.418 203.797 274.993 203.866C271.668 195.793 264.045 194.666 263.729 194.62C263.231 194.551 262.778 194.896 262.711 195.402C262.643 195.908 262.982 196.368 263.48 196.437C263.774 196.483 270.763 197.541 273.568 205.154C273.727 205.568 274.111 205.798 274.541 205.729C274.586 205.729 278.319 205.177 281.304 207.638C283.589 209.524 284.901 212.652 285.172 216.999C285.172 217.436 285.195 217.873 285.195 218.333Z" fill="#000200"/>
<path d="M230.025 220.817C228.78 220.817 227.491 220.518 226.315 219.92C223.193 218.333 221.384 215.113 221.384 211.065C221.384 210.559 221.791 210.145 222.288 210.145C222.786 210.145 223.193 210.559 223.193 211.065C223.216 214.4 224.641 217.022 227.129 218.287C229.255 219.368 231.744 219.184 233.485 217.873C235.476 216.355 236.222 213.595 235.612 210.099C235.521 209.593 235.861 209.133 236.336 209.041C236.833 208.949 237.286 209.294 237.376 209.777C238.371 215.458 236.041 218.195 234.549 219.322C233.259 220.311 231.653 220.817 230.025 220.817Z" fill="#000200"/>
<path d="M255.495 219.782C254.386 219.782 253.278 219.529 252.26 218.977C249.342 217.482 247.691 214.17 247.691 209.938C247.691 209.432 248.098 209.018 248.596 209.018C249.093 209.018 249.5 209.432 249.5 209.938C249.5 213.457 250.812 216.171 253.097 217.344C254.884 218.264 256.988 218.103 258.594 216.93C260.562 215.481 261.399 212.744 260.878 209.432C260.811 208.926 261.127 208.466 261.625 208.374C262.122 208.305 262.575 208.627 262.665 209.133C263.299 213.135 262.213 216.516 259.657 218.402C258.39 219.322 256.965 219.782 255.495 219.782Z" fill="#000200"/>
<path d="M236.697 214.446C236.381 214.446 236.064 214.285 235.906 213.963C235.657 213.526 235.838 212.974 236.268 212.721C236.539 212.56 243.054 209.018 248.958 211.87C249.41 212.077 249.591 212.629 249.387 213.089C249.184 213.549 248.641 213.733 248.188 213.526C243.099 211.065 237.195 214.285 237.127 214.331C236.992 214.4 236.833 214.446 236.697 214.446Z" fill="#000200"/>
<path d="M251.921 210.283L251.74 212.1C251.491 214.446 255.065 214.814 255.314 212.491L255.495 210.674C255.721 208.328 252.147 207.937 251.921 210.283Z" fill="#000200"/>
<path d="M227.695 210.858L227.514 212.675C227.265 215.021 230.839 215.389 231.088 213.066L231.269 211.249C231.517 208.903 227.943 208.512 227.695 210.858Z" fill="#000200"/>
<path d="M131.287 307.481C130.066 307.481 128.777 307.343 127.397 307.021C118.665 305.066 115.725 290.116 112.309 272.82C111.359 267.967 110.364 262.953 109.21 258.077C109.007 257.272 108.826 256.513 108.645 255.708C106.541 246.876 104.46 238.504 101.791 233.306C94.3261 218.655 81.0933 208.995 76.0942 207.937C75.3478 207.776 75.0085 207.868 74.9406 207.914C74.8275 208.19 74.4429 209.869 79.5099 215.159C81.8171 217.551 82.36 221.093 80.9349 224.175C79.8039 226.636 79.3741 228.89 79.6682 230.914C79.7361 231.42 79.3968 231.88 78.9217 231.949C78.4241 232.018 77.9717 231.673 77.9038 231.19C77.5645 228.798 78.0396 226.176 79.3289 223.393C80.4373 221.001 80.0075 218.264 78.2431 216.424C74.081 212.077 72.475 209.041 73.3346 207.132C73.5155 206.741 74.0132 206.051 75.2799 206.005C75.3025 206.005 75.3478 206.005 75.3704 206.005C80.5278 206.005 95.4119 216.792 103.397 232.455C106.156 237.837 108.283 246.324 110.409 255.271C110.59 256.053 110.771 256.835 110.975 257.617C112.128 262.539 113.123 267.576 114.096 272.452C117.24 288.437 120.204 303.525 127.804 305.227C142.213 308.47 147.868 291.68 154.383 272.268C156.961 264.632 159.608 256.72 163.001 249.429C163.205 248.969 163.747 248.785 164.2 248.992C164.652 249.199 164.833 249.751 164.63 250.211C161.282 257.387 158.635 265.253 156.102 272.843C150.107 290.622 144.452 307.481 131.287 307.481Z" fill="#000200"/>
<path d="M66.5711 229.005C66.458 229.005 66.3449 228.982 66.2318 228.936C61.1875 226.774 47.2535 221.829 43.3176 224.773C42.5712 225.348 42.2545 226.222 42.3676 227.464C42.4128 227.97 42.0509 228.407 41.5532 228.453C41.0556 228.499 40.6258 228.131 40.5806 227.625C40.3544 225.256 41.3497 223.945 42.2545 223.301C45.738 220.702 54.017 222.68 60.0792 224.681C58.1338 223.784 56.0754 223.048 54.2205 222.381C50.3751 221.024 47.5702 220.035 46.9821 218.195C46.8237 217.712 46.7559 216.93 47.3893 215.987C51.099 210.444 72.95 218.954 79.5551 221.714C80.0075 221.898 80.2337 222.427 80.0528 222.91C79.8718 223.37 79.3289 223.6 78.8765 223.416C63.0876 216.861 50.737 214.239 48.8822 217.045C48.6334 217.413 48.6786 217.574 48.7012 217.643C49.0179 218.609 52.0942 219.713 54.8087 220.679C59.0386 222.174 64.3318 224.06 67.2724 227.51C67.5438 227.832 67.5664 228.292 67.3176 228.637C67.1367 228.867 66.8652 229.005 66.5711 229.005Z" fill="#000200"/>
<path d="M62.2281 231.857C60.8257 231.489 59.1291 230.937 57.3195 230.385C50.3299 228.177 42.4128 225.67 39.902 228.614C38.771 229.925 38.8841 231.972 40.2413 234.87C40.2413 234.893 40.2639 234.893 40.2639 234.916C40.7842 234.893 41.3045 234.916 41.8021 234.962C41.9604 234.709 41.9831 234.364 41.8473 234.088C40.8521 231.995 40.6485 230.5 41.2366 229.81C42.9783 227.763 51.2573 230.408 56.754 232.133C58.5863 232.708 60.3054 233.26 61.7531 233.651C62.2281 233.766 62.7258 233.49 62.8389 233.007C62.9972 232.478 62.7258 231.972 62.2281 231.857Z" fill="#000200"/>
<path d="M125.542 361.692C122.466 361.692 119.231 361.37 115.815 360.68C82.066 353.803 76.0264 306.193 73.131 283.331C72.8596 281.169 72.6108 279.26 72.3845 277.673C71.9548 274.775 71.4571 272.015 70.9369 269.508C70.8238 268.864 70.688 268.243 70.5297 267.622C68.0867 256.674 64.8973 249.383 61.7531 247.566C58.1791 245.496 53.6777 244.3 49.6965 243.242C44.132 241.77 39.7436 240.597 38.8388 237.538C38.5674 236.618 38.296 235.284 39.1555 234.341C40.7842 232.57 45.0141 233.444 58.2017 236.457C58.6767 236.572 58.9934 237.055 58.8803 237.538C58.7672 238.021 58.2922 238.343 57.8172 238.228C48.6786 236.135 41.4854 234.479 40.4901 235.56C40.3318 235.744 40.3544 236.25 40.5806 236.986C41.1913 239.056 45.557 240.229 50.1715 241.448C54.2432 242.529 58.8803 243.748 62.6579 245.956C67.5665 248.785 70.8011 260.469 72.2941 267.162C72.4524 267.783 72.6108 268.473 72.7239 269.14C73.2667 271.67 73.7644 274.453 74.1942 277.397C74.4204 279.007 74.6692 280.916 74.9406 283.101C77.7908 305.549 83.7173 352.285 116.2 358.909C151.51 366.131 168.226 330.826 168.385 330.458C168.588 329.998 169.131 329.814 169.583 330.021C170.036 330.228 170.217 330.78 170.013 331.24C169.832 331.562 155.559 361.692 125.542 361.692Z" fill="#000200"/>
<path d="M71.3892 267.346C71.5702 267.99 71.6833 268.634 71.819 269.278C78.967 270.612 86.3864 270.405 93.5118 268.496C99.8906 266.771 106.428 263.183 110.138 257.847C109.934 257.042 109.753 256.26 109.572 255.478C105.727 262.47 96.5655 266.334 88.8068 267.668C82.9708 268.68 77.0895 268.542 71.3892 267.346Z" fill="#000200"/>
<path d="M138.413 359.714C138.028 359.714 137.666 359.461 137.553 359.07C135.834 353.366 129.908 347.616 122.126 344.12C112.332 339.704 101.451 339.658 92.3129 343.982C91.8605 344.189 91.3403 344.005 91.1141 343.545C90.9105 343.085 91.0915 342.556 91.5439 342.326C101.157 337.772 112.558 337.795 122.85 342.441C131.107 346.167 137.395 352.331 139.272 358.541C139.408 359.024 139.159 359.53 138.684 359.691C138.594 359.691 138.503 359.714 138.413 359.714Z" fill="#000200"/>
<path d="M334.281 295.958C320.663 295.958 313.923 274.752 308.878 258.905L308.539 257.847C306.073 250.027 303.947 243.265 301.685 240.252C301.391 239.861 301.459 239.286 301.844 238.964C302.228 238.665 302.794 238.734 303.11 239.125C305.553 242.391 307.747 249.268 310.258 257.249L310.598 258.307C317.203 279.099 324.26 297.453 337.877 293.566C352.445 289.403 355.86 264.333 358.892 242.207L358.959 241.678C359.095 240.85 359.186 240.068 359.299 239.263C360.543 230.132 361.855 221.484 364.072 215.849C370.541 199.381 384.452 187.122 389.519 186.731C390.809 186.639 391.329 187.26 391.555 187.651C392.618 189.468 391.284 192.688 387.483 197.472C385.945 199.404 385.787 202.141 387.076 204.303C388.682 206.994 389.429 209.593 389.293 212.031C389.27 212.537 388.841 212.928 388.343 212.905C387.845 212.882 387.461 212.445 387.483 211.939C387.574 209.869 386.918 207.615 385.516 205.246C383.842 202.44 384.068 198.852 386.058 196.322C390.673 190.48 390.13 188.824 389.972 188.571C389.926 188.548 389.587 188.479 388.841 188.709C383.955 190.273 371.717 201.198 365.7 216.516C363.551 221.967 362.262 230.5 361.018 239.493C360.905 240.298 360.792 241.08 360.679 241.908L360.611 242.414C357.512 265.092 354.006 290.806 338.307 295.268C336.927 295.774 335.57 295.958 334.281 295.958Z" fill="#000200"/>
<path d="M400.309 208.834C400.06 208.834 399.811 208.719 399.631 208.535C399.359 208.213 399.336 207.753 399.563 207.408C402.164 203.682 407.231 201.29 411.303 199.381C413.926 198.162 416.89 196.759 417.093 195.77C417.116 195.701 417.139 195.54 416.867 195.195C414.741 192.596 402.707 196.437 387.619 204.51C387.189 204.74 386.647 204.579 386.398 204.119C386.172 203.682 386.33 203.13 386.782 202.877C393.093 199.496 414.017 188.847 418.247 193.999C418.948 194.85 418.971 195.632 418.858 196.138C418.45 198.001 415.759 199.266 412.072 201.014C410.285 201.865 408.294 202.785 406.439 203.889C412.275 201.29 420.351 198.484 424.06 200.738C425.01 201.313 426.141 202.486 426.141 204.878C426.141 205.384 425.734 205.798 425.237 205.798C424.739 205.798 424.332 205.384 424.332 204.878C424.332 203.636 423.947 202.785 423.133 202.302C418.948 199.772 405.534 206.074 400.739 208.719C400.603 208.811 400.467 208.834 400.309 208.834Z" fill="#000200"/>
<path d="M405.308 212.997C404.946 212.997 404.607 212.767 404.471 212.399C404.29 211.916 404.539 211.41 405.014 211.226C406.371 210.72 408.023 210.007 409.764 209.271C416.505 206.373 424.151 203.084 426.933 205.775C428.177 206.971 428.268 209.018 427.182 212.031C427.001 212.514 426.503 212.744 426.028 212.583C425.553 212.422 425.327 211.893 425.485 211.41C426.277 209.225 426.345 207.73 425.689 207.086C423.766 205.223 415.759 208.673 410.466 210.95C408.701 211.709 407.027 212.422 405.647 212.951C405.512 212.974 405.399 212.997 405.308 212.997Z" fill="#000200"/>
<path d="M342.99 348.881C317.587 348.881 305.146 330.964 305.01 330.757C304.739 330.343 304.829 329.768 305.237 329.492C305.644 329.216 306.209 329.308 306.481 329.722C306.639 329.952 322.337 352.469 354.616 345.822C388.388 338.876 393.975 289.012 396.961 262.217C397.142 260.607 397.301 259.089 397.482 257.64C397.64 256.214 397.73 254.788 397.821 253.362C397.911 251.982 398.002 250.625 398.138 249.291C398.183 248.647 398.273 247.957 398.386 247.267C399.223 240.482 401.327 228.545 405.942 225.233C409.493 222.68 413.972 221.001 417.93 219.506C422.409 217.827 426.639 216.24 427.046 214.124C427.182 213.365 427.182 212.859 427.001 212.698C425.915 211.709 418.903 214.078 410.013 217.068C409.538 217.229 409.041 216.976 408.882 216.493C408.724 216.01 408.973 215.504 409.448 215.343C422.273 211.042 426.413 209.731 428.2 211.341C429.15 212.192 429.014 213.549 428.833 214.492C428.245 217.62 423.97 219.23 418.564 221.231C414.718 222.68 410.352 224.313 406.982 226.728C404.019 228.844 401.531 236.434 400.173 247.52C400.06 248.187 399.992 248.831 399.947 249.452C399.789 250.786 399.721 252.097 399.631 253.454C399.54 254.903 399.45 256.352 399.269 257.824C399.11 259.273 398.929 260.791 398.748 262.378C395.695 289.633 390.017 340.348 354.978 347.547C350.703 348.513 346.722 348.881 342.99 348.881Z" fill="#000200"/>
<path d="M399.291 247.474C399.178 248.141 399.11 248.785 399.065 249.452C392.075 251.499 384.679 252.028 377.418 250.832C370.903 249.751 364.072 246.83 359.864 241.885C360 241.057 360.09 240.275 360.204 239.47C364.705 246.048 374.183 248.992 382.032 249.544C387.891 249.935 393.727 249.199 399.291 247.474Z" fill="#000200"/>
<path d="M332.63 348.03C332.516 348.03 332.426 348.007 332.313 347.984C331.838 347.8 331.612 347.294 331.77 346.811C338.782 327.353 366.944 319.625 381.783 324.11C382.258 324.248 382.53 324.754 382.394 325.237C382.258 325.72 381.761 325.996 381.286 325.858C367.08 321.58 340.139 328.917 333.467 347.455C333.331 347.8 332.992 348.03 332.63 348.03Z" fill="#000200"/>
<path d="M244.592 84.151C240.475 80.08 231.54 76.147 212.336 80.54C212.041 80.609 211.793 80.816 211.702 81.115C211.589 81.414 211.634 81.736 211.815 81.966L215.661 87.325C215.887 87.647 216.271 87.785 216.633 87.67C224.799 85.186 231.766 85.485 236.268 88.498C239.027 90.338 240.701 93.19 241.108 96.755C242.149 105.771 225.274 108.209 225.116 108.232C224.664 108.301 224.324 108.715 224.347 109.175L225.093 124.447C225.116 124.93 225.523 125.321 225.998 125.321H229.278C229.527 125.321 229.753 125.229 229.934 125.045C230.092 124.861 230.205 124.631 230.183 124.378L229.844 113.453C233.237 112.694 246.582 109.129 248.573 98.779C249.659 92.983 248.256 87.785 244.592 84.151Z" fill="#000200"/>
<path d="M229.911 128.518H225.41C224.98 128.518 224.618 128.817 224.528 129.231L223.261 134.981C223.216 135.234 223.261 135.487 223.397 135.694C223.533 135.901 223.759 136.039 224.008 136.085L229.753 136.982C229.798 136.982 229.844 136.982 229.889 136.982C230.092 136.982 230.319 136.913 230.477 136.752C230.681 136.568 230.794 136.315 230.794 136.062V129.415C230.816 128.932 230.409 128.518 229.911 128.518Z" fill="#000200"/>
<rect x="52" y="324.5" width="366" height="39" fill="#A0DDE2" fill-opacity="0.8"/>
<rect width="488" height="460" transform="translate(0 -45)" fill="white"/>
<path d="M59.8387 57.1891L66.2319 248.135H194.05L198.374 57.1891H59.8387Z" fill="#F6C8E2"/>
<path d="M359.883 69.632C357.56 72.622 355.261 75.589 352.938 78.579C352.087 79.683 353.628 81.27 354.502 80.143C356.824 77.153 359.124 74.186 361.447 71.196C362.298 70.092 360.757 68.505 359.883 69.632Z" fill="#FE7122"/>
<path d="M338.542 84.26V98.681L349.327 92.931L338.542 84.26Z" fill="#FE7122"/>
<path d="M117.723 276.862C113.997 273.389 110.249 269.916 106.523 266.42C105.488 265.454 103.924 267.018 104.959 267.984C108.685 271.457 112.433 274.93 116.159 278.426C117.194 279.369 118.758 277.828 117.723 276.862Z" fill="#FE7122"/>
<path d="M143.617 89.0441L150.241 97.5541L162.015 89.0441L152.816 79.0851L143.617 89.0441Z" fill="#8C5FF8"/>
<path d="M233.26 72.5296C242.091 72.5066 250.876 73.1506 259.753 72.8056C263.846 72.6446 267.94 72.5066 272.033 72.5986C268.193 65.5836 259.914 60.2706 242.965 60.2706C216.495 60.2706 207.687 71.3106 207.687 88.9516C207.687 106.593 207.687 106.593 207.687 106.593L207.894 106.961C210.792 106.616 213.299 107.536 215.667 107.651C223.44 97.4846 206.101 72.6216 233.26 72.5296Z" fill="#2D2D2D"/>
<path d="M252.003 122.325C251.382 122.325 250.899 121.842 250.899 121.221C250.899 120.6 251.382 120.117 252.003 120.117C254.073 120.117 255.775 119.565 256.556 118.645C256.993 118.116 257.154 117.495 257.016 116.713C256.717 114.965 252.854 113.999 251.014 113.792C250.462 113.723 250.025 113.263 250.025 112.688V102.591C250.025 101.97 250.508 101.487 251.129 101.487C251.75 101.487 252.233 101.97 252.233 102.591V111.745C254.28 112.113 258.672 113.24 259.178 116.345C259.408 117.771 259.086 119.059 258.212 120.071C256.993 121.52 254.786 122.325 252.003 122.325Z" fill="#2D2D2D"/>
<path d="M259.96 100.682V102.89C259.96 105.719 264.375 105.742 264.375 102.89V100.682C264.375 97.8533 259.96 97.8533 259.96 100.682Z" fill="#2D2D2D"/>
<path d="M229.006 100.682V102.89C229.006 105.719 233.421 105.742 233.421 102.89V100.682C233.421 97.8533 229.006 97.8533 229.006 100.682Z" fill="#2D2D2D"/>
<path d="M232.846 90.4933C231.03 90.5393 229.259 90.7003 227.488 91.0913C226.108 91.4133 226.867 93.4833 228.224 93.1613C229.788 92.8163 231.421 92.7243 233.03 92.6783C234.456 92.6323 234.249 90.4473 232.846 90.4933Z" fill="#2D2D2D"/>
<path d="M265.065 90.4932C263.754 90.2172 262.375 90.1712 261.064 89.7802C259.707 89.3892 258.833 91.4132 260.19 91.8042C261.685 92.2412 263.226 92.3332 264.72 92.6782C266.146 92.9772 266.445 90.7922 265.065 90.4932Z" fill="#2D2D2D"/>
<path d="M276.357 96.0822C276.288 92.6552 276.219 89.0902 276.173 85.3872C275.897 67.9992 264.743 59.1672 243.011 59.1672C218.174 59.1672 206.63 68.6202 206.63 88.9522V106.593C206.63 107.214 207.113 107.697 207.733 107.697C208.354 107.697 208.837 107.214 208.837 106.593V88.9522C208.837 69.8852 219.37 61.3752 243.011 61.3752C263.594 61.3752 273.712 69.2412 273.965 85.4102C274.034 89.1132 274.103 92.6782 274.172 96.1052C274.793 128.466 275.184 147.993 264.513 154.157C255.361 159.447 238.826 158.435 238.665 158.412C238.274 158.389 237.929 158.55 237.699 158.849C237.469 159.148 237.423 159.539 237.561 159.884C239.608 165.335 247.289 168.348 251.543 169.659C253.015 166.899 254.556 164.162 255.729 161.264V159.585C255.729 159.562 255.729 159.516 255.729 159.493C259.224 158.803 262.72 157.722 265.617 156.043C277.392 149.258 277.001 129.248 276.357 96.0822Z" fill="#2D2D2D"/>
<path d="M256.165 158.435C255.751 158.412 255.338 158.642 255.131 159.033L241.309 186.633L213.184 156.664C212.77 156.227 212.08 156.204 211.62 156.618C211.183 157.032 211.16 157.722 211.574 158.182L240.803 189.301C241.01 189.531 241.309 189.646 241.608 189.646C241.654 189.646 241.723 189.646 241.769 189.623C242.114 189.577 242.436 189.347 242.597 189.025L256.188 161.908V158.435H256.165Z" fill="#2D2D2D"/>
<path d="M226.522 198.087C226.499 198.087 226.476 198.087 226.453 198.087C226.108 198.064 225.786 197.88 225.602 197.604L205.112 166.646C204.859 166.255 204.859 165.749 205.135 165.381L211.252 157.101L210.355 123.659C205.457 123.613 202.72 122.003 201.225 120.577C199.569 118.99 198.65 116.874 198.65 114.62C198.65 112.182 199.362 110.296 200.857 108.893C203.387 106.501 208.009 105.512 215.001 105.857C215.598 105.88 216.081 106.409 216.035 107.007C216.012 107.605 215.437 108.088 214.886 108.042C208.607 107.72 204.399 108.548 202.375 110.48C201.317 111.492 200.857 112.757 200.857 114.62C200.857 115.563 201.11 117.403 202.766 118.99C204.606 120.738 207.572 121.589 211.39 121.451C211.666 121.428 211.965 121.543 212.195 121.75C212.402 121.957 212.54 122.233 212.54 122.532L213.483 157.446C213.483 157.699 213.414 157.929 213.276 158.136L207.388 166.094L226.66 195.212L236.595 183.735C236.986 183.275 237.699 183.229 238.159 183.62C238.619 184.011 238.665 184.724 238.274 185.184L227.396 197.765C227.143 197.949 226.844 198.087 226.522 198.087Z" fill="#2D2D2D"/>
<path d="M253.015 195.005C252.693 195.005 252.394 194.867 252.164 194.614L243.264 184.103C242.965 183.758 242.919 183.275 243.126 182.884L255.131 160.321C255.269 160.045 255.522 159.838 255.82 159.769C256.119 159.7 256.441 159.746 256.694 159.907L262.306 163.541C262.72 163.817 262.904 164.3 262.766 164.783L254.027 194.246C253.912 194.637 253.59 194.936 253.199 195.005C253.176 195.005 253.107 195.005 253.015 195.005ZM245.449 183.252L252.555 191.647L260.466 164.944L256.556 162.414L245.449 183.252Z" fill="#2D2D2D"/>
<path d="M231.789 112.803C230.248 112.803 228.684 112.458 227.235 111.722C223.395 109.813 221.187 105.926 221.164 101.05C221.164 100.429 221.647 99.9462 222.268 99.9462C222.866 99.9462 223.372 100.429 223.372 101.05C223.395 105.075 225.165 108.249 228.224 109.767C230.823 111.055 233.881 110.871 236.02 109.261C238.458 107.444 239.378 104.109 238.642 99.9002C238.527 99.3022 238.941 98.7272 239.539 98.6122C240.136 98.4972 240.711 98.9112 240.826 99.5092C242.045 106.363 239.194 109.675 237.377 111.032C235.767 112.205 233.789 112.803 231.789 112.803Z" fill="#2D2D2D"/>
<path d="M263.065 111.561C261.708 111.561 260.351 111.239 259.086 110.595C255.522 108.778 253.475 104.799 253.475 99.6932C253.475 99.0722 253.958 98.5892 254.579 98.5892C255.2 98.5892 255.683 99.0722 255.683 99.6932C255.683 103.948 257.292 107.214 260.098 108.64C262.283 109.767 264.881 109.56 266.836 108.134C269.251 106.363 270.286 103.074 269.642 99.0722C269.55 98.4742 269.964 97.8992 270.562 97.8072C271.16 97.7152 271.735 98.1292 271.827 98.7272C272.608 103.58 271.252 107.651 268.147 109.905C266.629 110.986 264.858 111.561 263.065 111.561Z" fill="#2D2D2D"/>
<path d="M239.998 105.121C239.608 105.121 239.24 104.914 239.033 104.546C238.734 104.017 238.941 103.35 239.47 103.051C239.815 102.867 247.795 98.5662 255.062 102.039C255.614 102.292 255.844 102.959 255.591 103.511C255.338 104.063 254.671 104.293 254.119 104.04C247.864 101.073 240.619 104.96 240.55 105.006C240.343 105.075 240.159 105.121 239.998 105.121Z" fill="#2D2D2D"/>
<path d="M259.707 125.039L256.005 125.844C254.625 126.143 255.2 128.259 256.579 127.96C257.821 127.684 259.063 127.431 260.282 127.155C261.685 126.856 261.087 124.74 259.707 125.039Z" fill="#2D2D2D"/>
<path d="M137.638 321.942C137.04 321.942 136.534 321.459 136.534 320.838C135.637 195.971 174.709 178.675 203.249 166.025L205.595 164.99C206.147 164.737 206.813 164.99 207.043 165.542C207.296 166.094 207.043 166.761 206.492 166.991L204.146 168.026C176.181 180.423 137.868 197.374 138.742 320.792C138.742 321.436 138.259 321.942 137.638 321.942Z" fill="#2D2D2D"/>
<path d="M180.068 321.942C179.447 321.942 178.964 321.459 178.964 320.838V243.42C178.964 242.799 179.447 242.316 180.068 242.316C180.688 242.316 181.171 242.799 181.171 243.42V320.838C181.171 321.436 180.688 321.942 180.068 321.942Z" fill="#2D2D2D"/>
<path d="M245.288 317.043C244.69 317.043 244.207 316.56 244.184 315.962L240.504 188.565C240.481 187.944 240.964 187.438 241.585 187.438C242.275 187.415 242.712 187.898 242.712 188.519L246.391 315.916C246.414 316.537 245.931 317.043 245.311 317.043C245.288 317.043 245.288 317.043 245.288 317.043Z" fill="#2D2D2D"/>
<path d="M301.401 319.665C300.826 319.665 300.343 319.228 300.297 318.653C296.18 267.524 294.226 241.189 294.502 240.384C294.685 239.809 295.329 239.487 295.904 239.694C296.433 239.855 296.732 240.384 296.64 240.913C296.548 243.282 300.09 288.523 302.505 318.492C302.551 319.09 302.091 319.619 301.493 319.688C301.47 319.665 301.447 319.665 301.401 319.665Z" fill="#2D2D2D"/>
<path d="M207.71 283.233C207.503 283.233 207.296 283.187 207.135 283.072L189.819 272.285C189.52 272.101 189.313 271.779 189.313 271.411L187.358 236.336C187.335 236.037 187.45 235.738 187.657 235.508C187.864 235.278 188.163 235.163 188.462 235.163H224.59C224.889 235.163 225.165 235.278 225.372 235.485C225.579 235.692 225.694 235.968 225.694 236.267L225.671 271.02C225.671 271.388 225.487 271.733 225.165 271.94L208.308 283.049C208.124 283.164 207.917 283.233 207.71 283.233ZM191.451 270.698L207.664 280.818L223.417 270.422L223.44 237.371H189.612L191.451 270.698Z" fill="#2D2D2D"/>
<path d="M316.349 246.111C316.303 246.111 316.257 246.111 316.211 246.111C314.693 246.042 310.094 245.858 306.23 222.237C301.999 196.224 285.211 174.995 261.34 165.496C260.765 165.266 260.489 164.622 260.719 164.07C260.949 163.495 261.593 163.219 262.145 163.449C286.729 173.247 304.022 195.097 308.392 221.892C311.772 242.684 315.544 243.903 316.28 243.926C316.901 243.995 320.143 243.282 324.03 227.642C326.077 219.454 327.709 208.575 329.434 197.052C332.585 176.03 335.873 154.272 342.129 145.302C350.247 133.641 368.231 126.281 390.101 136.125C412.684 146.291 408.338 163.035 408.292 163.219C408.131 163.817 407.395 165.358 406.797 165.197C406.222 165.036 406.015 163.219 406.176 162.621C406.337 162 409.993 147.487 389.204 138.126C368.483 128.811 351.558 135.642 343.945 146.567C337.989 155.123 334.747 176.605 331.642 197.374C329.894 208.943 328.261 219.891 326.192 228.171C323.179 240.223 319.959 246.111 316.349 246.111Z" fill="#2D2D2D"/>
<path d="M401.921 173.684C401.668 173.684 401.438 173.592 401.231 173.431C400.772 173.04 401.484 171.43 401.875 170.97C408.453 162.989 404.957 158.757 398.426 152.731C397.989 152.317 397.943 151.627 398.357 151.167C398.771 150.707 399.461 150.684 399.921 151.098C406.728 157.377 411.327 162.943 403.577 172.373C403.347 172.626 402.243 173.684 401.921 173.684Z" fill="#2D2D2D"/>
<path d="M380.465 182.815C380.442 183.068 380.373 183.298 380.235 183.528C379.913 184.149 378.993 184.609 377.751 184.747C375.199 185.023 371.059 183.942 367.77 179.986C362.895 174.075 361.791 169.176 361.768 169.13C361.63 168.532 361.055 168.164 360.457 168.279C359.859 168.417 359.492 168.992 359.606 169.59C359.652 169.82 360.825 175.041 366.069 181.389C369.495 185.552 373.865 187.001 376.969 187.001C377.314 187.001 377.659 186.978 377.981 186.955C379.407 186.794 380.603 186.311 381.408 185.552C381.086 184.655 380.764 183.735 380.465 182.815Z" fill="#2D2D2D"/>
<path d="M394.079 156.641C393.642 156.204 392.952 156.204 392.515 156.641C392.079 157.078 392.079 157.768 392.515 158.205C392.584 158.274 400.082 165.818 400.105 173.086C400.105 175.639 399.162 177.87 397.276 179.756C393.573 183.459 388.146 184.54 386.306 183.482C385.961 183.275 385.777 183.045 385.938 182.47C386.283 181.182 387.364 180.446 388.606 179.595C390.492 178.284 392.86 176.674 391.803 172.718C390.791 168.969 387.548 164.921 383.915 162.897C381.753 161.701 379.706 161.333 377.958 161.862C375.774 162.506 374.118 164.346 373.405 166.899C372.531 169.981 373.267 173.408 375.245 175.616C375.774 176.214 376.325 176.789 376.831 177.318C378.096 178.675 379.108 179.779 379.729 180.722C379.269 179.181 378.878 177.617 378.625 176.03C378.556 175.961 378.487 175.892 378.418 175.823C377.912 175.294 377.383 174.742 376.877 174.144C375.383 172.488 374.854 169.889 375.521 167.497C376.027 165.703 377.13 164.415 378.579 163.978C380.028 163.541 381.684 164.185 382.811 164.829C385.915 166.554 388.79 170.119 389.641 173.293C390.262 175.639 389.273 176.444 387.318 177.778C385.915 178.744 384.328 179.825 383.777 181.895C383.386 183.344 383.892 184.655 385.156 185.391C388.008 187.047 394.447 185.667 398.794 181.32C401.093 179.02 402.266 176.237 402.266 173.086C402.312 164.898 394.424 156.963 394.079 156.641Z" fill="#2D2D2D"/>
<path d="M408.154 161.172C407.901 161.172 408.085 160.321 407.878 160.16C407.418 159.769 407.349 159.079 407.74 158.596C407.74 158.596 408.361 157.745 409.855 153.973C410.706 151.88 410.637 148.522 408.637 145.762C406.958 143.462 403.324 140.817 395.574 141.346C394.953 141.392 394.447 140.932 394.401 140.311C394.355 139.713 394.815 139.184 395.436 139.138C404.198 138.54 408.43 141.691 410.43 144.451C412.937 147.878 412.983 152.11 411.902 154.778C410.292 158.826 409.58 159.815 409.419 160.022C409.212 160.275 408.476 161.172 408.154 161.172Z" fill="#2D2D2D"/>
<path d="M328.514 304.784C314.67 304.784 305.172 299.448 298.825 294.986C298.319 294.641 298.204 293.951 298.549 293.445C298.894 292.939 299.584 292.824 300.09 293.169C307.794 298.597 320.327 305.336 340.036 301.38C365.862 296.182 368.621 247.422 370.438 215.153C371.22 201.33 371.841 190.428 373.888 185.276C374.118 184.701 374.762 184.425 375.314 184.655C375.889 184.885 376.165 185.529 375.935 186.081C374.026 190.911 373.382 202.204 372.646 215.268C370.668 250.182 367.978 297.999 340.473 303.542C336.172 304.416 332.194 304.784 328.514 304.784Z" fill="#2D2D2D"/>
<path d="M372.646 193.05C358.687 197.236 343.647 192.544 334.471 181.251C333.574 180.147 332.033 181.711 332.907 182.815C342.566 194.683 358.595 199.559 373.244 195.166C374.578 194.752 374.003 192.636 372.646 193.05Z" fill="#2D2D2D"/>
<path d="M298.066 276.264C306.92 292.916 316.05 301.702 325.571 303.588C319.27 304.002 310.738 301.104 299.469 294.089L298.066 276.264Z" fill="#2D2D2D"/>
<path d="M145.963 237.371H83.9165C83.3186 237.371 82.8357 236.888 82.8127 236.313L76.4424 45.367C76.4424 45.068 76.5344 44.769 76.7414 44.562C76.9484 44.355 77.2244 44.217 77.5233 44.217H216.058C216.357 44.217 216.633 44.332 216.84 44.562C217.047 44.769 217.162 45.068 217.139 45.367L216.219 72.714C216.196 73.335 215.69 73.841 215.092 73.772C214.494 73.749 214.012 73.243 214.035 72.645L214.908 46.448H78.6732L84.9744 235.186H145.94C146.561 235.186 147.044 235.669 147.044 236.29C147.044 236.911 146.561 237.371 145.963 237.371Z" fill="#2D2D2D"/>
<path d="M78.3282 70.1149C77.7303 70.1149 77.2244 69.6319 77.2244 69.0339C77.2244 68.4129 77.7073 67.9299 78.3052 67.9069L216.035 66.3429C216.61 66.2969 217.139 66.8259 217.162 67.4239C217.162 68.0449 216.679 68.5279 216.081 68.5509L78.3282 70.1149C78.3282 70.1149 78.3512 70.1149 78.3282 70.1149Z" fill="#2D2D2D"/>
<path d="M128.577 141.898H101.693C101.095 141.898 100.612 141.415 100.589 140.817L100.06 115.586C100.037 114.988 100.52 114.482 101.141 114.459L129.083 113.723C129.382 113.723 129.681 113.838 129.888 114.045C130.095 114.252 130.21 114.551 130.21 114.85L129.681 140.817C129.658 141.415 129.175 141.898 128.577 141.898ZM102.774 139.69H127.496L127.979 115.954L102.291 116.644L102.774 139.69Z" fill="#2D2D2D"/>
<path d="M175.514 141.898H147.205C146.584 141.898 146.101 141.415 146.101 140.794V114.827C146.101 114.206 146.584 113.723 147.205 113.723H175.514C176.135 113.723 176.618 114.206 176.618 114.827V140.794C176.618 141.392 176.112 141.898 175.514 141.898ZM148.309 139.69H174.41V115.931H148.309V139.69Z" fill="#2D2D2D"/>
<path d="M166.499 193.763H146.193C145.618 193.763 145.158 193.326 145.089 192.751L142.513 164.53C142.49 164.231 142.582 163.932 142.789 163.702C142.996 163.472 143.272 163.334 143.571 163.334L175.468 161.77C175.767 161.77 176.066 161.862 176.273 162.069C176.503 162.276 176.618 162.575 176.618 162.874V183.436C176.618 184.057 176.135 184.54 175.514 184.54C174.893 184.54 174.41 184.057 174.41 183.436V164.024L144.813 165.473L147.205 191.532H166.499C167.12 191.532 167.603 192.015 167.603 192.636C167.603 193.257 167.12 193.763 166.499 193.763Z" fill="#2D2D2D"/>
<path d="M143.617 143.945C143.318 143.945 143.019 143.83 142.789 143.577C142.375 143.117 142.421 142.427 142.881 142.013L179.332 109.606C179.792 109.192 180.482 109.238 180.896 109.698C181.31 110.158 181.264 110.848 180.804 111.262L144.353 143.669C144.146 143.853 143.87 143.945 143.617 143.945Z" fill="white"/>
<path d="M101.165 143.945C100.912 143.945 100.636 143.853 100.429 143.669C99.9687 143.255 99.9457 142.565 100.36 142.105L128.301 111.17C128.715 110.71 129.405 110.687 129.865 111.101C130.325 111.515 130.348 112.205 129.934 112.665L101.992 143.577C101.762 143.83 101.463 143.945 101.165 143.945Z" fill="white"/>
<path d="M124.024 198.087C123.633 198.087 123.242 197.88 123.035 197.489L117.101 186.196C116.825 185.667 117.032 185 117.561 184.701C118.09 184.425 118.78 184.632 119.056 185.161L124.989 196.454C125.265 196.983 125.058 197.65 124.53 197.949C124.369 198.041 124.185 198.087 124.024 198.087Z" fill="#2D2D2D"/>
<path d="M124.023 46.4249C123.633 46.4249 123.265 46.2179 123.058 45.8499C122.759 45.3209 122.966 44.6539 123.495 44.3549L152.701 28.2549C153.023 28.0709 153.437 28.0709 153.759 28.2549L182.735 44.3549C183.264 44.6539 183.448 45.3209 183.172 45.8499C182.873 46.379 182.206 46.5859 181.677 46.2869L153.23 30.4859L124.552 46.3099C124.391 46.379 124.207 46.4249 124.023 46.4249Z" fill="#2D2D2D"/>
<path d="M83.9165 237.371H77.3623C76.7644 237.371 76.2815 236.888 76.2585 236.29L71.5211 48.4949C71.5211 48.1959 71.636 47.9199 71.843 47.6899C72.05 47.4599 72.326 47.3679 72.6249 47.3679H77.5463C78.1672 47.3679 78.6502 47.8509 78.6502 48.4719C78.6502 49.0929 78.1672 49.5759 77.5463 49.5759H73.7518L78.4202 235.163H83.8935C84.5145 235.163 84.9974 235.646 84.9974 236.267C84.9974 236.888 84.5375 237.371 83.9165 237.371Z" fill="#2D2D2D"/>
<path d="M416.433 220.995C416.433 220.995 412.822 216.671 407.165 215.061C401.508 213.428 401.761 191.233 385.617 191.854C372.669 192.36 371.197 207.31 374.003 217.292C376.786 227.274 369.381 229.367 371.772 235.485L385.709 230.954C392.263 238.383 405.463 233.323 402.841 225.388L416.433 220.995Z" fill="#FE7122"/>
<path d="M375.383 231.897C374.946 231.897 374.532 231.621 374.348 231.207C373.083 227.964 374.21 225.595 375.314 223.318C376.602 220.673 377.935 217.913 376.533 212.899C374.808 206.735 374.348 197.397 378.763 191.348C381.201 188.013 384.697 186.242 389.181 186.058C400.404 185.621 404.198 195.304 406.981 202.342C408.315 205.7 409.557 208.851 411.051 209.288C416.962 210.99 420.71 215.383 420.871 215.567C421.101 215.843 421.193 216.234 421.078 216.579C420.986 216.924 420.71 217.2 420.365 217.315L375.705 231.805C375.613 231.897 375.498 231.897 375.383 231.897ZM389.273 188.289C385.501 188.427 382.581 189.899 380.557 192.659C376.878 197.719 376.947 206.183 378.671 212.301C380.304 218.12 378.648 221.524 377.314 224.284C376.418 226.147 375.728 227.573 376.096 229.413L417.974 215.82C416.525 214.486 413.857 212.416 410.43 211.45C407.901 210.714 406.567 207.402 404.911 203.193C402.243 196.385 398.886 187.967 389.273 188.289Z" fill="#2D2D2D"/>
<path d="M397.506 231C394.309 231 390.975 229.827 388.491 227.021C388.077 226.561 388.123 225.871 388.583 225.457C389.043 225.066 389.733 225.089 390.147 225.549C393.597 229.459 399.093 229.482 402.542 227.504C405.187 225.986 406.245 223.594 405.417 221.064C405.233 220.489 405.532 219.868 406.107 219.661C406.682 219.477 407.303 219.776 407.51 220.351C408.683 223.893 407.211 227.343 403.646 229.39C401.922 230.402 399.76 231 397.506 231Z" fill="#2D2D2D"/>
<path d="M387.065 185.023C386.674 184.862 386.33 184.632 386.008 184.333C385.157 183.482 385.065 182.263 385.456 181.159C385.502 180.998 385.617 180.883 385.732 180.837C385.778 180.745 385.824 180.676 385.87 180.584C383.846 173.5 381.316 167.152 378.671 167.497C377.545 167.635 376.97 168.256 376.671 168.762C375.268 171.154 377.062 176.674 381.937 188.979C382.098 189.416 382.535 189.669 382.972 189.669C383.11 189.669 383.248 189.646 383.386 189.6C383.961 189.37 384.237 188.726 384.007 188.174C381.408 181.619 377.499 171.729 378.579 169.889C378.625 169.82 378.671 169.728 378.832 169.682C380.212 170.188 383.202 178.33 385.364 187.438C385.502 188.036 386.1 188.404 386.697 188.266C387.295 188.128 387.663 187.53 387.525 186.932C387.364 186.288 387.226 185.644 387.065 185.023Z" fill="#2D2D2D"/>
<path d="M365.586 228.217C359.078 222.467 358.227 213.428 363.838 206.735C364.735 205.654 363.194 204.09 362.274 205.171C355.927 212.761 356.571 223.203 364.022 229.781C365.08 230.724 366.644 229.16 365.586 228.217Z" fill="#40BBC3"/>
<path d="M349.557 233.438C335.713 226.216 341.899 209.265 349.281 199.789C350.132 198.685 348.591 197.121 347.717 198.225C339.484 208.782 333.206 227.389 348.453 235.324C349.718 236.014 350.822 234.105 349.557 233.438Z" fill="#40BBC3"/>
<path d="M415.26 189.623C413.903 189.186 413.328 191.302 414.685 191.739C421.837 194.085 430.668 199.605 427.701 208.46C427.241 209.817 429.38 210.392 429.817 209.035C433.198 198.961 423.539 192.337 415.26 189.623Z" fill="#40BBC3"/>
<path d="M419.331 177.249C417.951 177.065 417.353 179.181 418.756 179.365C435.957 181.78 445.501 199.697 437.521 215.314C436.877 216.579 438.786 217.683 439.43 216.418C447.962 199.697 438.05 179.871 419.331 177.249Z" fill="#40BBC3"/>
</g>
<defs>
<clipPath id="clip0_0_1430">
<rect width="480" height="460" fill="white" transform="translate(0 0.5)"/>
</clipPath>
</defs>
</svg>
